<?xml version="1.0" encoding="UTF-8" standalone="no"?>
<!-- Created with Inkscape (http://www.inkscape.org/) -->

<svg
   version="1.1"
   id="svg1"
   width="899.66748"
   height="650.3454"
   viewBox="0 0 899.66748 650.3454"
   sodipodi:docname="435e.svg"
   inkscape:version="1.3.2 (091e20ef0f, 2023-11-25)"
   xmlns:inkscape="http://www.inkscape.org/namespaces/inkscape"
   xmlns:sodipodi="http://sodipodi.sourceforge.net/DTD/sodipodi-0.dtd"
   xmlns="http://www.w3.org/2000/svg"
   xmlns:svg="http://www.w3.org/2000/svg">
  <defs
     id="defs1" />
  <sodipodi:namedview
     id="namedview1"
     pagecolor="#ffffff"
     bordercolor="#000000"
     borderopacity="0.25"
     inkscape:showpageshadow="2"
     inkscape:pageopacity="0.0"
     inkscape:pagecheckerboard="0"
     inkscape:deskcolor="#d1d1d1"
     showgrid="false"
     inkscape:zoom="0.76468533"
     inkscape:cx="453.12756"
     inkscape:cy="324.97027"
     inkscape:window-width="1920"
     inkscape:window-height="1011"
     inkscape:window-x="0"
     inkscape:window-y="0"
     inkscape:window-maximized="1"
     inkscape:current-layer="layer1" />
  <g
     inkscape:groupmode="layer"
     id="layer1"
     inkscape:label="Layer 1"
     transform="translate(-23.999999,-19.80989)">
    <path
       style="fill:#000000"
       d="m 527.54557,669.76447 c -1.34993,-0.37033 -4.79993,-3.01884 -7.66667,-5.88557 -4.72333,-4.72334 -5.86213,-5.21225 -12.14058,-5.21225 -5.30148,0 -8.11077,0.81943 -11.96407,3.48977 -7.16432,4.96488 -9.61929,3.63794 -8.81206,-4.76302 0.34677,-3.60896 0.22741,-7.21394 -0.26524,-8.01107 -0.50848,-0.82274 -9.16245,-2.03624 -20.01702,-2.80687 -10.5167,-0.74664 -19.50312,-1.59352 -19.9698,-1.88195 -0.46669,-0.28843 -8.61739,-1.19842 -18.11267,-2.0222 -9.49527,-0.82378 -21.76414,-2.4341 -27.26414,-3.57847 -21.73202,-4.52175 -19.52563,-4.56613 -27.10383,0.54528 -6.30935,4.25557 -7.50145,4.58953 -14.00939,3.9246 -9.56178,-0.97694 -25.888,-9.32664 -40.93262,-20.93411 -6.57478,-5.07269 -14.05415,-10.38093 -16.62082,-11.79609 -2.56667,-1.41516 -6.16667,-4.19613 -8,-6.17994 -1.83333,-1.9838 -6.63333,-5.09496 -10.66667,-6.91368 -6.48847,-2.92581 -8.47127,-3.20785 -17.21064,-2.44815 -5.43252,0.47223 -11.68017,1.7909 -13.88366,2.93037 -2.60461,1.3469 -5.87255,1.82146 -9.34017,1.35635 -4.39115,-0.58897 -6.58062,-2.08764 -12.38843,-8.47978 -3.88004,-4.27041 -7.08217,-8.38103 -7.11585,-9.13472 -0.0337,-0.75369 -1.11124,-2.30622 -2.39458,-3.45007 -1.28333,-1.14384 -6.29692,-6.22719 -11.1413,-11.29632 -16.4946,-17.25982 -33.65524,-29.95923 -51.19203,-37.88367 -19.0475,-8.60709 -28.39789,-13.49262 -30.70715,-16.04433 -1.30505,-1.44206 -3.08351,-2.62193 -3.95215,-2.62193 -2.35005,0 -4.67403,-6.06321 -4.67403,-12.19446 0,-6.15133 -4.58091,-11.52976 -12.27556,-14.41269 -17.669401,-6.62014 -19.385414,-7.96917 -16.241174,-12.76788 2.60785,-3.98009 9.695944,-7.29163 15.607124,-7.29163 2.57806,0 4.93897,-0.75 5.24647,-1.66667 0.3075,-0.91667 -1.76759,-4.37067 -4.61132,-7.67557 -8.610546,-10.00694 -21.364665,-33.3529 -22.952484,-42.01371 -1.298453,-7.08245 -6.129188,-16.64405 -8.408945,-16.64405 -1.00643,0 -3.450076,0.81569 -5.430326,1.81264 -5.414315,2.72584 -15.962165,3.70559 -22.10012,2.05281 -7.556683,-2.0348 -16.833666,-11.40226 -16.833666,-16.99784 0,-4.14776 0.0031,-4.1495 5.964804,-3.33236 7.359038,1.00867 11.82288,-1.53585 15.087889,-8.60051 1.254352,-2.71411 2.879485,-5.36214 3.611407,-5.88452 2.101399,-1.49979 2.686697,-51.28599 0.632035,-53.76171 -1.264651,-1.52381 -3.216729,-1.79225 -8.213234,-1.12944 -5.015773,0.66537 -7.78642,0.27927 -11.8033,-1.6448 -2.886953,-1.38285 -5.25589,-2.92141 -5.264303,-3.41903 -0.0084,-0.49762 -0.765298,-1.725 -1.681964,-2.7275 -4.605635,-5.03693 -6.333334,-10.80447 -6.333334,-21.14246 0,-5.80724 0.528787,-10.55861 1.175082,-10.55861 0.646295,0 2.77683,2.1 4.734522,4.66667 3.295575,4.32072 4.094741,4.66666 10.780473,4.66666 6.453666,0 7.709438,-0.4884 11.816973,-4.59594 4.691239,-4.69124 9.548244,-17.30456 8.108352,-21.05685 -0.398332,-1.03804 -0.138207,-3.42873 0.578055,-5.31264 0.933399,-2.45502 0.818832,-4.08647 -0.404448,-5.7594 -1.606404,-2.19689 -2.085665,-2.205 -8.152061,-0.13797 -3.544925,1.20787 -8.349705,2.19614 -10.677289,2.19614 -8.391479,0 -17.90042,-9.97825 -17.78872,-18.66667 0.02357,-1.83333 1.044751,-6.32778 2.269291,-9.98767 2.828746,-8.4545 6.135532,-9.48445 8.935534,-2.7831 l 1.992107,4.76778 7.649398,-5.25829 c 7.534991,-5.17964 11.287115,-8.97188 19.1143,-19.31865 4.129719,-5.45909 4.5896,-9.20083 1.186453,-9.65335 -1.091579,-0.14515 -4.881408,-0.64581 -8.421843,-1.11258 -8.593433,-1.13295 -15.646841,-7.38424 -17.919578,-15.88175 -3.521273,-13.16564 -0.209251,-36.80024 5.303755,-37.84762 1.678328,-0.31885 3.328289,1.87794 6.249713,8.321 l 3.969357,8.75423 5.750287,-0.043 c 4.554164,-0.0341 7.489125,-1.23783 14.109647,-5.78706 15.127891,-10.39499 24.287009,-18.98241 54.973971,-51.542595 34.93014,-37.062376 43.94672,-44.008401 57.02698,-43.93138 5.44685,0.03207 16.30635,4.374349 16.30635,6.520254 0,1.530663 5.30752,6.783796 6.85403,6.783796 1.62703,0 9.14597,-11.586121 9.14597,-14.093243 0,-1.253694 1.05,-3.076506 2.33334,-4.050695 2.73381,-2.07526 7,-2.422115 7,-0.569123 0,0.707816 1.76459,3.296699 3.92131,5.753073 2.15673,2.456373 4.17126,6.227251 4.47674,8.379728 0.5094,3.589376 0.96257,3.888724 5.47015,3.613394 8.96389,-0.547527 28.11616,-8.38155 34.08446,-13.941876 1.48251,-1.381163 4.93313,-7.141718 7.66804,-12.801232 2.73492,-5.659514 5.13999,-10.540929 5.34461,-10.847589 1.08914,-1.632291 7.52008,3.75776 9.34855,7.835428 7.1098,15.855533 7.23511,19.888537 1.01947,32.811384 -2.56667,5.336319 -4.66667,10.688049 -4.66667,11.892733 0,1.204683 1.2797,5.16508 2.84378,8.800881 3.61125,8.394578 2.76778,15.891295 -2.80743,24.952162 -3.42412,5.5649 -4.03635,7.8966 -4.03635,15.37256 0,7.21504 -0.75951,10.33061 -4.18956,17.18587 -5.41811,10.82858 -7.6804,13.47432 -9.92712,11.6097 -0.94155,-0.78141 -2.12585,-3.30543 -2.63179,-5.60893 -0.50593,-2.3035 -2.01396,-6.31204 -3.35117,-8.90787 -1.33722,-2.59583 -3.10666,-6.51969 -3.9321,-8.71969 -1.44206,-3.84342 -1.57519,-3.89869 -3.4012,-1.41183 -1.04521,1.4235 -1.90039,3.62375 -1.90039,4.88946 0,1.26571 -1.22365,5.15595 -2.71923,8.64498 -3.72057,8.67974 -2.49042,9.61943 20.05256,15.31803 14.03636,3.54821 20.90359,3.33676 27.03936,-0.8326 4.25727,-2.89289 4.78635,-3.77568 3.59593,-6 -0.76768,-1.43442 -2.03399,-2.60804 -2.81403,-2.60804 -3.37876,0 -10.24227,-4.40029 -11.63652,-7.46033 -1.94622,-4.2715 -1.95917,-12.89857 -0.0223,-14.83548 0.8227,-0.82269 2.32965,-1.17583 3.3488,-0.78475 1.01914,0.39108 5.00886,-0.56982 8.86604,-2.13533 7.04614,-2.85982 10.79645,-7.19773 16.9182,-19.56894 3.26201,-6.592072 10.29637,-12.686657 16.95635,-14.691016 7.97883,-2.401276 16.55335,-2.368959 19.82663,0.07473 2.49376,1.861724 2.40711,2.083048 -2.37529,6.066956 -9.86865,8.22093 -15.7032,25.0791 -15.7032,45.37229 0,7.48548 -0.82273,15.54463 -1.9791,19.38653 -2.90675,9.65735 -10.59922,18.86077 -19.69141,23.55919 -10.55095,5.45223 -25.16964,5.57727 -38.99616,0.33355 -20.67679,-7.8417 -24.19891,-7.83457 -22.92001,0.0464 1.03907,6.40299 -1.07632,25.30041 -3.68986,32.96275 -1.45399,4.26278 -1.75245,7.08988 -0.91493,8.66667 0.68364,1.28708 1.45639,5.33502 1.71722,8.9954 0.47052,6.60288 0.43228,6.67557 -4.85908,9.23539 -14.06759,6.80553 -16.27059,8.05714 -20,11.36275 -10.07303,8.92835 -16.68444,8.72629 -20.82604,-0.63648 -1.44764,-3.27264 -3.17992,-5.95025 -3.8495,-5.95025 -1.1345,0 -2.88204,-5.15646 -4.59657,-13.56307 -0.923,-4.52561 -7.60199,-6.96911 -15.72116,-5.75157 -7.73577,1.16005 -16.06311,-2.19915 -19.37762,-7.81682 -3.65493,-6.19465 -6.9595,-16.65611 -6.98286,-22.10606 -0.0263,-6.14262 -2.10817,-9.88953 -3.36617,-6.05845 -0.47486,1.44612 -1.37054,4.1293 -1.9904,5.96263 -3.2777,9.69419 -4.42369,35.42427 -2.3043,51.73652 1.19491,9.19683 1.99054,11.50426 4.70228,13.63731 3.60679,2.83711 7.71592,1.75161 9.31622,-2.46105 1.5614,-4.11024 11.45887,-12.21209 15.94734,-13.05413 4.90137,-0.9195 11.79393,1.35206 12.90746,4.25389 0.39433,1.02761 -0.46665,2.97109 -1.91329,4.31884 -1.91402,1.78318 -3.00955,5.47535 -4.02313,13.55878 -0.76608,6.10957 -2.03429,12.30682 -2.81824,13.77166 -2.37044,4.4292 -7.43707,8.41515 -13.77191,10.83445 -7.47855,2.85608 -8.89521,6.77325 -5.01298,13.86127 1.4688,2.68168 3.0596,6.52695 3.53509,8.54503 0.86111,3.65466 8.8494,12.99743 11.11311,12.99743 2.66269,0 6.18827,-3.90682 10.16856,-11.26812 5.12671,-9.48153 12.06343,-15.39292 19.04003,-16.22569 7.53034,-0.89887 9.62749,0.96139 6.11616,5.42532 -4.0687,5.17252 -4.72716,10.3054 -2.45816,19.16217 1.75136,6.83624 1.77387,8.81147 0.16968,14.89266 -1.90486,7.22099 -4.15149,10.39333 -13.33693,18.83234 l -5.33334,4.89993 3.79072,3.52533 c 5.16349,4.80199 21.1903,6.28297 31.03628,2.86794 9.96222,-3.45535 28.42813,-4.34469 33.86763,-1.63112 2.40995,1.20225 5.13395,2.18591 6.05333,2.18591 3.1314,0 13.83565,13.39498 15.28264,19.12425 0.76989,3.04833 1.88181,6.72707 2.47094,8.17498 1.02764,2.52568 1.20164,2.49164 4.2848,-0.83826 1.76751,-1.90896 3.98376,-6.39362 4.92498,-9.9659 0.94123,-3.57229 2.31924,-8.29507 3.06225,-10.49507 2.77314,-8.21105 3.03531,-26.44109 0.57663,-40.09629 -2.64697,-14.701 -9.7592,-30.10209 -17.0435,-36.90664 -5.51527,-5.15204 -14.92788,-9.89019 -21.79935,-10.97344 -7.35151,-1.15893 -8.19956,-3.57923 -7.13144,-20.35285 0.63153,-9.91748 1.4759,-14.33206 3.08039,-16.10499 1.2157,-1.34334 2.21037,-2.92276 2.21037,-3.50983 0,-0.58707 2.61228,-3.53983 5.80506,-6.56168 3.19279,-3.02185 6.38083,-6.56964 7.08454,-7.88396 2.1488,-4.01333 32.44373,-6.08704 32.44373,-2.22081 0,0.5809 2.87218,1.67216 6.38263,2.42501 15.14778,3.24862 18.31762,5.49912 49.43918,35.10041 5.79145,5.50854 22.59869,25.73238 30.1202,36.24309 2.16811,3.02975 6.15182,7.90864 8.8527,10.84198 6.24794,6.7857 10.68747,12.32959 13.68493,17.08915 2.4558,3.89947 5.06425,6.84776 20.80338,23.51373 5.16101,5.46491 9.38364,10.38099 9.38364,10.92462 0,0.54362 1.76176,2.02909 3.91501,3.30105 2.15325,1.27196 4.24855,3.55588 4.65621,5.07538 0.40766,1.5195 2.87846,4.56273 5.49067,6.76273 2.6122,2.2 7.65243,6.778 11.20052,10.17333 3.54809,3.39532 8.31553,7.27469 10.59433,8.62081 2.27879,1.34611 4.17065,3.06812 4.20412,3.82667 0.0955,2.16376 15.65324,13.06641 25.86446,18.12544 8.01189,3.96939 10.8362,4.6497 20.97369,5.0521 9.91047,0.39338 12.63664,0.0189 17.69805,-2.43132 6.23087,-3.01631 14.06961,-12.09566 14.06961,-16.29637 0,-1.32219 0.6,-2.40399 1.33333,-2.40399 3.58228,0 -1.0048,-35.82386 -5.54864,-43.33333 -2.04793,-3.38457 -3.77814,-21.28749 -3.2512,-33.64111 0.47605,-11.16052 1.09624,-14.36349 3.41055,-17.61363 3.04521,-4.27661 9.55359,-9.41193 11.92845,-9.41193 2.33085,0 1.67593,5.64705 -1.15257,9.93797 -3.80496,5.77225 -4.75157,16.31938 -2.23659,24.92004 2.20396,7.537 5.96813,12.11025 22.24561,27.02719 8.71898,7.99022 14.13113,15.49882 20.74549,28.78147 3.31627,6.65957 3.66129,8.7421 3.75534,22.66666 0.0958,14.18477 -0.17665,15.91317 -3.63724,23.07413 -2.05743,4.25744 -4.75743,8.86443 -6,10.23777 -1.24256,1.37333 -2.95769,3.28997 -3.8114,4.2592 -3.3983,3.85813 -10.78913,10.4289 -11.73047,10.4289 -0.54948,0 -2.7817,1.5 -4.96049,3.33333 -2.17879,1.83334 -4.6654,3.35524 -5.52581,3.38202 -2.25519,0.0702 -9.17935,11.50327 -8.64631,14.27669 0.98774,5.13927 80.45518,3.00858 90.73052,-2.43268 1.27338,-0.67432 3.78797,-1.22603 5.58798,-1.22603 1.8,0 3.64355,-0.6 4.09678,-1.33333 0.45322,-0.73333 2.30756,-1.33333 4.12075,-1.33333 4.48135,0 16.97148,-4.38092 25.87925,-9.07716 22.86644,-12.05535 28.71049,-15.34999 29.11111,-16.41167 0.24444,-0.64781 1.0581,-1.17784 1.80813,-1.17784 0.75002,0 3.63636,-1.8 6.41409,-4 2.77773,-2.2 5.67758,-4 6.44411,-4 1.256,0 8.30924,-5.44905 17.66678,-13.64865 1.89432,-1.65991 6.90664,-6.01802 11.13848,-9.68468 14.32239,-12.40957 25.25453,-28.53394 31.18749,-46 3.06688,-9.02863 3.02277,-30.08613 -0.0782,-37.33333 -3.22936,-7.54723 -23.11891,-26.66667 -27.74077,-26.66667 -1.2145,0 -4.12186,-0.95467 -6.46081,-2.12149 -5.06897,-2.52873 -14.14212,-4.06808 -34.82374,-5.90818 -63.06483,-5.61103 -67.28375,-6.11867 -81.99999,-9.86664 -16.95367,-4.31781 -26.99129,-8.0081 -30.53799,-11.22716 -1.53744,-1.39541 -3.39535,-2.773 -4.12868,-3.06131 -0.73333,-0.2883 -3.73333,-2.01244 -6.66667,-3.83141 -2.93333,-1.81897 -5.49499,-3.14694 -5.69257,-2.95104 -0.19758,0.1959 -1.66072,-0.85634 -3.25141,-2.3383 -1.5907,-1.48196 -3.2703,-2.69447 -3.73245,-2.69447 -0.46215,0 -3.17824,-3.55554 -6.03577,-7.9012 -2.85753,-4.34566 -5.75897,-7.55295 -6.44766,-7.12732 -0.68971,0.42626 -0.80854,0.0561 -0.26455,-0.8241 0.54318,-0.87889 -0.0991,-3.22159 -1.42737,-5.20601 -4.14969,-6.19973 -11.16246,-20.70933 -12.61323,-26.09706 -0.76368,-2.83608 -1.36022,-10.93627 -1.32566,-18.00041 0.12591,-25.73111 6.92111,-43.36259 21.30298,-55.27473 10.92123,-9.04578 30.89484,-18.01101 46.82103,-21.0158 12.51771,-2.36171 42.06633,-2.44924 52.66666,-0.15601 4.4,0.95188 11,2.37919 14.66667,3.17179 3.66666,0.79261 7.26666,1.85848 8,2.36861 1.92642,1.34008 16.02017,5.18577 25.33333,6.91258 11.09824,2.05779 32.72436,2.89205 38.15363,1.47183 4.20048,-1.09879 4.50286,-1.54328 4.36606,-6.41802 -0.0808,-2.88061 -0.60373,-9.13894 -1.16199,-13.9074 -0.87844,-7.50347 -0.61468,-9.52158 1.96049,-15 1.63651,-3.48154 3.45855,-6.330071 4.04896,-6.330071 0.59041,0 2.77239,-1.8 4.84883,-4 2.07645,-2.2 4.54842,-4 5.49327,-4 0.94485,0 3.05871,-0.87853 4.69747,-1.952288 3.16984,-2.076956 18.25995,-4.394901 18.25995,-2.804854 0,0.518838 -1.8,3.559552 -4,6.757142 -7.39528,10.748661 -4.99472,24.542121 6.41157,36.840531 5.3862,5.80746 20.76253,17.14182 23.31897,17.18911 0.88153,0.0163 3.10279,1.20296 4.93612,2.63702 1.83334,1.43405 4.10269,2.62071 5.04301,2.63702 1.63714,0.0284 19.24975,6.46019 27.62366,10.08765 2.2,0.95301 9.15858,2.12608 15.46352,2.60681 9.0026,0.68642 12.55963,0.41608 16.5694,-1.25931 5.2673,-2.20082 7.9596,-1.34142 6.63244,2.1171 -1.03135,2.68765 -14.1351,10.47125 -22.48954,13.35875 -5.73585,1.98244 -11.69442,2.37524 -36.84249,2.42869 -36.45386,0.0775 -40.49641,0.91988 -44.96483,9.36978 -1.813,3.42845 -3.03517,8.07471 -3.03517,11.5387 0,5.81473 1.05021,7.39537 8.54998,12.86834 4.37652,3.19377 1.73818,5.93529 -6.73016,6.99334 -13.1945,1.64854 -28.50992,-2.89863 -32.89751,-9.76732 -0.59273,-0.92791 -2.33392,-2.85746 -3.86931,-4.28789 -2.41242,-2.24752 -2.80936,-4.23683 -2.9223,-14.64577 -0.0756,-6.96584 -0.69294,-12.09517 -1.46403,-12.16398 -0.73333,-0.0654 -11.53333,-0.26555 -24,-0.44468 -21.30008,-0.30606 -23.47054,-0.58086 -36,-4.55796 -9.58731,-3.0432 -18.11583,-4.65033 -30.35582,-5.7203 l -17.02249,-1.48803 -8.31085,3.59436 c -4.57096,1.9769 -9.71923,4.90094 -11.44059,6.49786 -8.85984,8.21935 -11.40171,23.70587 -5.51003,33.57017 5.22636,8.75036 11.0544,15.47894 15.30645,17.6716 2.2,1.13447 6.4,3.59781 9.33333,5.47408 7.43061,4.7529 16.9425,7.70528 28.66667,8.89781 5.5,0.55944 11.8,1.20651 14,1.43794 2.2,0.23143 13,1.08096 24,1.88785 45.43632,3.33291 51.1558,3.87557 62,5.88254 6.23333,1.15363 13.07286,2.69391 15.19896,3.42284 2.1261,0.72894 5.20144,1.32534 6.83409,1.32534 1.63266,0 6.49312,1.61803 10.80104,3.59563 4.30791,1.97759 8.73257,3.68865 9.83257,3.80235 4.02518,0.41606 12.98733,5.87536 15.20739,9.2636 1.25477,1.91502 3.31671,3.89958 4.58209,4.41014 5.05783,2.04073 20.21052,21.58792 20.21052,26.07186 0,1.02478 0.86143,2.57816 1.9143,3.45196 1.05286,0.87379 2.30756,3.49726 2.78823,5.82992 0.48066,2.33266 1.76984,6.9412 2.86484,10.2412 2.64666,7.97626 3.79465,33.17275 2.00471,44 -2.26618,13.70801 -5.6288,28.45732 -6.82998,29.95801 -0.60546,0.75643 -1.51763,3.32456 -2.02703,5.70695 -0.91191,4.26478 -6.46759,15.89423 -12.74017,26.66837 -0.74715,1.28334 -2.10418,3.83334 -3.01563,5.66667 -4.45648,8.96398 -18.17931,29.00456 -20.4603,29.87985 -1.00776,0.38672 -1.8323,1.62195 -1.8323,2.74497 0,1.12302 -0.46184,2.04185 -1.0263,2.04185 -0.56446,0 -3.41446,3.12107 -6.33333,6.93571 -7.68919,10.04894 -19.36545,21.26842 -29.66092,28.50058 -4.9387,3.46924 -10.32945,7.5199 -11.97945,9.00146 -3.573,3.20825 -3.86438,8.40149 -0.72302,12.88641 2.55108,3.64217 2.846,16.75284 0.47644,21.1804 -3.67716,6.87083 -18.84224,15.1427 -32.08675,17.50187 -5.63924,1.00449 -24.80928,5.77236 -38.99497,9.69864 -3.48057,0.96334 -7.05057,2.47379 -7.93333,3.35656 -0.88277,0.88276 -2.41368,1.60503 -3.40203,1.60503 -3.74791,0 -13.65555,13.07886 -13.66469,18.03846 -0.003,1.48782 -1.74992,6.88782 -3.88262,12 -3.84656,9.2204 -3.93833,9.31513 -11.45404,11.82353 -7.54178,2.51709 -7.60785,2.51573 -14.4557,-0.29797 -14.26469,-5.86118 -24.95492,-6.58378 -45.54595,-3.07864 -10.38909,1.7685 -14,2.88705 -14,4.33679 0,0.64781 -0.52334,1.17783 -1.16298,1.17783 -1.67035,0 -23.80569,13.41623 -40.17036,24.34726 -7.7,5.14333 -17,11.32431 -20.66666,13.7355 -6.63097,4.36052 -13.76921,6.30036 -18.45442,5.01506 z m 14.19527,-15.92997 c 3.69929,-2.65768 7.37095,-5.34988 8.15924,-5.98268 14.71704,-11.81404 48.28886,-31.67775 60.76657,-35.95425 5.18093,-1.77566 13.22495,-3.2108 20,-3.56822 11.16382,-0.58895 13.85984,-0.24642 35.63548,4.52755 10.80393,2.36859 10.9987,2.36519 12.95759,-0.22609 1.09384,-1.44696 2.00787,-3.99976 2.03119,-5.67289 0.061,-4.3794 5.17204,-18.94471 7.44549,-21.21816 1.06164,-1.06164 1.93025,-2.45803 1.93025,-3.10309 0,-1.73638 16.7761,-10.80388 25.2806,-13.66419 4.06234,-1.36628 10.38607,-3.07011 14.05273,-3.78629 3.66667,-0.71617 9.06667,-1.84134 12,-2.50038 2.93334,-0.65904 8.22229,-1.82211 11.75324,-2.58461 14.97319,-3.23341 25.56631,-9.9559 27.60219,-17.51661 2.02878,-7.5343 -1.1091,-13.50853 -10.30058,-19.61133 -5.97155,-3.96488 -7.11951,-5.3508 -6.78762,-8.19454 0.48819,-4.18304 3.66513,-5.00126 10.57027,-2.72236 l 5.06159,1.67048 10.38379,-8.97283 c 23.36913,-20.1937 38.40051,-35.99811 47.00341,-49.42069 1.41004,-2.2 4.99138,-7.3 7.95854,-11.33333 23.70034,-32.21646 33.70247,-60.19452 33.84324,-94.66667 0.10145,-24.84183 -6.06414,-40.10428 -23.07143,-57.11157 -4.55999,-4.55998 -14.05703,-12.22176 -15.1493,-12.22176 -0.4119,0 -2.89841,-1.45868 -5.52556,-3.24152 -12.36376,-8.39027 -44.09188,-14.05022 -101.34178,-18.07825 -62.81311,-4.41945 -73.75049,-7.5851 -92.84369,-26.87214 -8.68896,-8.77718 -10.43194,-11.31809 -11.92037,-17.37755 -4.39195,-17.87967 -0.65926,-34.09725 10.31765,-44.82758 7.76664,-7.59217 31.32412,-12.79563 48.38751,-10.688 9.69647,1.19768 30.02255,6.00718 40.72557,9.63637 18.97088,6.43265 38.30093,6.08233 59.64891,-1.08103 7.87357,-2.642 15.52357,-4.80363 17,-4.80363 4.69196,0 2.90513,3.58039 -3.99731,8.00967 -10.93718,7.01837 -14.81475,14.92867 -12.73976,25.98932 1.12862,6.01605 10.25683,15.33434 15.02154,15.33434 3.03679,0 3.19696,-0.31947 2.17256,-4.33333 -0.60827,-2.38333 -1.0314,-8.13076 -0.94029,-12.77206 0.15385,-7.83817 0.51779,-8.79935 5.11397,-13.50627 9.13465,-9.35472 29.85906,-12.98103 52.6636,-9.21494 5.01796,0.82869 11.35822,1.0875 14.08947,0.57511 4.56456,-0.85632 4.76344,-1.07342 2.46084,-2.68623 -1.37779,-0.96504 -7.44212,-3.08678 -13.4763,-4.71497 -17.73945,-4.78662 -40.09686,-17.28097 -51.35307,-28.69846 -8.12618,-8.24261 -12.02618,-16.58867 -12.45266,-26.64884 -0.32827,-7.74341 -0.64408,-8.66667 -2.96455,-8.66667 -2.07935,0 -5.5802,9.46088 -5.56726,15.04524 0.0139,6.00441 4.79001,17.76419 8.44146,20.78469 5.52788,4.57268 0.46639,8.20055 -15.88323,11.38443 -22.13,4.30954 -40.86153,3.38044 -59.90459,-2.97131 -6.6,-2.20141 -14.4,-4.43491 -17.33333,-4.96333 -2.93333,-0.52842 -5.93333,-1.40872 -6.66666,-1.95622 -2.51568,-1.87818 -18.89093,-3.99016 -30.77589,-3.96928 -13.2442,0.0233 -33.69765,3.79039 -43.89078,8.08381 -20.52345,8.64463 -29.47172,15.78795 -35.77891,28.56197 -6.02145,12.19531 -7.53797,18.05096 -7.54699,29.14087 -0.0153,18.84545 7.65818,37.32791 22.28306,53.67114 6.55593,7.32623 29.70328,23.52412 38.37617,26.85463 6.68335,2.5665 28.48351,6.68868 43.93103,8.30689 8.02873,0.84105 14.98,1.76546 15.44726,2.05425 0.46727,0.28879 12.79831,1.17941 27.40231,1.97917 40.89047,2.23929 57.7157,7.4202 72.16687,22.22198 12.15091,12.44572 17.41559,27.16585 15.98922,44.70609 -2.01702,24.80335 -11.15552,43.18494 -32.44302,65.2573 -13.08896,13.57155 -19.87983,19.04246 -42.08484,33.90471 -21.83222,14.61274 -35.76603,21.80763 -53.74216,27.75042 -5.86667,1.93949 -12.46667,4.15657 -14.66667,4.92686 -6.26025,2.19191 -16.2796,4.69786 -29.33333,7.33659 -9.95542,2.01243 -16.99786,2.35065 -41.33333,1.98507 -56.34205,-0.84639 -65.13591,-0.70376 -70.66667,1.14614 -8.22743,2.75188 -22.51112,11.65741 -25.77232,16.06842 -2.68601,3.63303 -3.42067,3.89964 -8.73766,3.17086 -3.65996,-0.50165 -6.14547,-0.24491 -6.72624,0.6948 -0.50663,0.81975 -2.53068,1.49046 -4.49789,1.49046 -4.32761,0 -29.53019,12.24043 -32.92406,15.99061 -1.33198,1.47184 -3.13581,2.67606 -4.00849,2.67606 -0.87269,0 -2.7297,1.27347 -4.12669,2.82993 -1.39699,1.55646 -5.83998,5.05197 -9.87331,7.7678 -4.03334,2.71583 -10.12035,6.84236 -13.5267,9.17007 -3.40635,2.32771 -6.70635,4.22613 -7.33334,4.21872 -0.62698,-0.007 -5.33996,-3.93466 -10.4733,-8.7272 -16.06889,-15.00212 -27.02764,-21.56443 -50.66666,-30.34019 -11.32041,-4.2026 -32.02808,-7.80505 -41.92727,-7.29398 l -7.2606,0.37485 -3.9743,-8 c -5.12516,-10.31658 -16.42881,-21.28628 -28.61637,-27.77094 -7.75779,-4.1277 -11.45683,-5.24521 -19.33387,-5.84095 l -9.74067,-0.73669 -0.31411,-6.15904 c -0.43856,-8.59932 -2.43031,-16.80965 -5.57158,-22.96704 -4.22584,-8.28334 -12.36223,-18.33509 -17.87178,-22.07892 -6.61458,-4.49473 -19.69586,-9.76857 -24.36295,-9.82215 -4.57628,-0.0526 -8.94023,-3.18859 -7.96685,-5.72518 1.40878,-3.67121 9.24661,-3.7963 18.88212,-0.30136 15.50909,5.62538 24.44626,11.99875 34.09635,24.31516 1.77497,2.2654 11.96188,24.21951 11.96188,25.7794 0,2.57096 2.16043,1.22124 6.97713,-4.35895 8.44687,-9.78577 11.20192,-13.4529 15.77698,-21 2.44501,-4.03334 5.07556,-7.77415 5.84568,-8.31292 2.3217,-1.62425 7.06824,-1.14203 7.81099,0.79355 0.94488,2.46232 -5.40384,13.13797 -13.59029,22.8527 -14.88279,17.66116 -14.18833,16.51851 -11.34666,18.6696 1.3894,1.05174 3.44272,1.93134 4.56294,1.95466 2.41429,0.0503 17.052,7.46018 20.06822,10.15896 1.15774,1.03589 2.70315,1.88345 3.43425,1.88345 0.73109,0 2.78384,1.557 4.56167,3.46001 1.77784,1.90301 4.96204,4.3596 7.07602,5.45907 4.80246,2.49775 4.86756,2.40559 10.06711,-14.25242 15.19336,-48.67561 17.34311,-107.59861 5.88607,-161.33333 -1.17268,-5.5 -3.00093,-11.70575 -4.06278,-13.79057 -2.11029,-4.14333 -1.61498,-5.62737 1.48159,-4.43911 13.46517,5.16707 22.28962,102.46829 13.62465,150.22968 -3.90513,21.5251 -4.88235,25.88892 -9.51751,42.50103 -5.03941,18.06091 -4.93809,18.77281 2.67727,18.81211 4.69285,0.0242 21.67108,3.17095 33.1303,6.14033 9.89945,2.56521 22.65639,8.26014 34.49172,15.39776 4.92544,2.97042 9.48881,5.19406 10.14082,4.94143 0.65202,-0.25263 -1.05204,-7.95933 -3.7868,-17.126 -2.73475,-9.16666 -7.18542,-24.76666 -9.89037,-34.66666 -2.70495,-9.9 -6.02184,-21.6 -7.37086,-26 -1.34902,-4.4 -3.49065,-11.6 -4.75917,-16 -6.56777,-22.78093 -36.6646,-113.05464 -39.22793,-117.6619 -0.71546,-1.28595 -2.43346,-5.0381 -3.81778,-8.3381 -4.81514,-11.47854 -5.00678,-11.80483 -14.63641,-24.92088 -11.35928,-15.47193 -26.19699,-27.07911 -34.61579,-27.07911 -2.96621,0 -5.20834,-2.22717 -3.7302,-3.7053 2.06987,-2.06988 16.48983,-0.35362 21.54675,2.56448 11.54623,6.66276 29.11045,28.19865 38.05081,46.65496 5.86091,12.09914 17.69978,41.59647 22.93841,57.15252 4.04909,12.02375 16.34754,47.27024 18.60944,53.33333 6.98787,18.73125 29.27601,92.92557 32.20896,107.21945 2.49226,12.14619 2.97724,13.22223 5.51964,12.24663 1.02582,-0.39365 1.86513,-0.0917 1.86513,0.671 0,0.79262 0.8532,0.63188 1.99148,-0.37518 2.3002,-2.03503 13.73651,-10.54847 25.46721,-18.95835 4.46895,-3.20384 9.56895,-6.27796 11.33333,-6.83138 1.76439,-0.55341 6.31953,-2.42355 10.12254,-4.15586 3.80301,-1.7323 8.49701,-3.14964 10.4311,-3.14964 2.62253,0 3.40304,-0.58931 3.07012,-2.31803 -0.24552,-1.27491 -1.49185,-2.51935 -2.76961,-2.76543 -1.27776,-0.24607 -4.87087,-3.16342 -7.98469,-6.48299 -3.11382,-3.31957 -9.56148,-10.09928 -14.32815,-15.06601 -14.56158,-15.17278 -21.49697,-23.60972 -28.82229,-35.06246 -3.85972,-6.03446 -8.25368,-12.56665 -9.76435,-14.51596 -1.51068,-1.94932 -2.74669,-4.19131 -2.74669,-4.98219 0,-0.79089 -3.19776,-6.09599 -7.10613,-11.78912 -3.90837,-5.69313 -9.45293,-14.25115 -12.32124,-19.01781 -2.86832,-4.76667 -5.52056,-8.96667 -5.89387,-9.33333 -0.37332,-0.36667 -1.54326,-2.16667 -2.59988,-4 -1.05661,-1.83334 -4.65661,-8.03909 -8,-13.79057 -6.92805,-11.918 -10.707,-18.68095 -18.37025,-32.8761 -11.41017,-21.13581 -12.69527,-23.46842 -15.42591,-28 -1.54663,-2.56667 -5.69295,-8.50614 -9.21405,-13.19884 -3.5211,-4.6927 -6.402,-9.0427 -6.402,-9.66667 0,-2.86404 4.4327,-0.5748 10.35558,5.34808 6.70021,6.70021 8.79497,9.66612 22.31108,31.58954 21.41018,34.72776 37.40198,59.65449 44.43471,69.26122 2.14739,2.93334 4.72805,6.7886 5.73482,8.56726 1.00676,1.77866 2.91578,4.54483 4.24227,6.14704 1.32649,1.60221 4.04267,5.99655 6.03596,9.76521 1.99329,3.76866 6.90798,10.57996 10.92154,15.13622 4.01355,4.55627 8.25228,10.40666 9.4194,13.00086 1.16711,2.59421 3.11711,5.54021 4.33333,6.54667 1.21622,1.00646 2.2113,2.335 2.2113,2.95232 0,0.61732 3.45,4.65341 7.66667,8.96909 9.50957,9.73288 15.8894,17.16862 16.82704,19.61205 0.39338,1.02514 2.69322,3.19097 5.11076,4.81296 2.41755,1.62198 6.79553,5.93981 9.72887,9.59517 2.93333,3.65536 6.93637,7.83423 8.89564,9.28638 l 3.56231,2.64028 5.10436,-4.8729 c 8.57421,-8.18541 20.05866,-12.66859 38.12485,-14.88277 6.07328,-0.74433 6.50684,-1.08405 9.81937,-7.69394 3.52936,-7.04258 12.12695,-16.16442 29.64689,-31.45466 11.14474,-9.72639 14.73053,-16.30825 15.51431,-28.47715 1.12663,-17.49197 -9.39642,-40.611 -23.60818,-51.86692 l -5.4575,-4.32242 0.95843,5.26963 c 0.52714,2.89829 1.81667,7.84059 2.86564,10.98289 1.07469,3.21935 1.90721,10.81679 1.90721,17.40487 0,9.90582 -0.52731,12.74978 -3.45228,18.61944 -4.64817,9.32765 -15.64119,18.9479 -25.47718,22.29566 -8.61666,2.93276 -23.99683,3.16281 -32.29605,0.48309 -10.15015,-3.27738 -28.9519,-13.14996 -32.59881,-17.11726 -2.10337,-2.28817 -5.70337,-5.11465 -8,-6.28107 -8.11739,-4.1227 -21.85225,-15.16474 -25.25066,-20.30009 -1.89349,-2.86125 -6.77397,-8.07828 -10.84551,-11.59339 -6.19566,-5.34895 -18.07951,-19.30036 -18.07951,-21.225 0,-0.3065 -6.15,-8.30681 -13.66667,-17.77847 -7.51666,-9.47166 -14.68655,-18.64616 -15.93309,-20.38779 -8.65689,-12.09517 -11.98063,-16.4985 -19.0669,-25.26006 -11.29295,-13.96274 -31.92035,-35.07882 -41.19063,-42.16648 -4.32151,-3.30404 -12.04766,-8.1972 -17.16923,-10.8737 -8.24836,-4.31053 -10.63298,-4.91844 -20.87807,-5.32247 -11.38889,-0.44913 -11.65703,-0.38687 -17.49744,4.06226 -7.22762,5.5059 -11.46003,12.81954 -12.65727,21.87187 -0.78191,5.91198 -0.52454,7.16194 1.94923,9.46661 1.56755,1.46039 5.19799,3.3587 8.06764,4.21847 3.46963,1.03953 8.59424,4.85338 15.29695,11.38432 11.41734,11.12475 16.70369,20.70457 20.3685,36.91134 3.05381,13.50478 3.00772,41.72971 -0.0852,52.15215 -6.40991,21.60023 -20.69886,37.56819 -36.22428,40.48077 -2.5558,0.47948 -4.64691,0.58057 -4.64691,0.22465 0,-0.35591 1.64858,-3.57269 3.66351,-7.14838 2.97634,-5.28183 3.6641,-8.1662 3.66667,-15.37751 0.003,-7.92885 -0.43671,-9.42312 -4.11799,-14 -8.26366,-10.27412 -17.97263,-11.94958 -37.36483,-6.44802 -17.91562,5.08265 -30.064,3.83202 -42.11494,-4.33557 -7.35872,-4.98742 -25.06575,-23.09868 -25.06575,-25.63797 0,-1.88776 0.68313,-1.75478 6.66667,1.2978 11.15848,5.69263 24.00417,2.13854 28.91479,-8 2.43723,-5.03197 2.79258,-21.0438 0.55572,-25.04085 -0.9895,-1.76814 -1.5904,-1.25325 -3.29301,2.82168 -1.14546,2.74146 -3.98839,7.63817 -6.31763,10.88158 -3.6311,5.05621 -5.10145,6.02705 -10.31144,6.80833 -4.89492,0.73404 -7.127,0.34122 -11.47912,-2.02017 -5.52073,-2.99547 -8.66743,-8.02954 -13.39528,-21.42968 -3.5128,-9.95634 -8.62216,-19.4803 -13.5211,-25.20361 -2.56563,-2.99736 -4.28316,-6.06723 -3.81673,-6.82193 0.46643,-0.7547 1.44337,-1.00426 2.17098,-0.55457 2.46438,1.52307 9.79337,2.55958 17.50296,2.47537 7.13398,-0.0779 8.00349,-0.44051 12.29689,-5.12781 2.80514,-3.06249 4.91568,-6.95794 5.37255,-9.91615 0.41386,-2.6797 1.31077,-6.94168 1.99314,-9.47105 0.68236,-2.52938 1.01154,-4.82799 0.7315,-5.10803 -1.33416,-1.33415 -6.32819,2.98414 -8.59916,7.43561 -4.50548,8.83147 -9.01033,12.27128 -16.07076,12.27128 -5.09728,0 -6.84983,-0.66926 -9.60171,-3.66667 -7.47079,-8.13734 -8.324,-12.17213 -8.38804,-39.66666 -0.0609,-26.14271 2.46062,-47.15892 6.70344,-55.87152 1.03694,-2.12933 1.88534,-4.44565 1.88534,-5.14737 0,-2.86196 10.04345,-21.33072 14.31113,-26.31655 5.50565,-6.43211 7.59268,-5.78298 6.42575,1.99862 -0.46857,3.12467 -1.3944,12.35527 -2.05739,20.51243 -1.19828,14.74301 -1.13011,15.45407 3.48429,36.34423 0.92639,4.19396 7.97273,12.29852 9.74199,11.20506 0.68381,-0.42262 1.62017,-0.15861 2.08079,0.58668 0.46062,0.7453 5.87154,1.35508 12.02427,1.35508 11.12984,0 11.20419,0.0228 14.60477,4.4812 1.87989,2.46466 4.32601,7.53889 5.43583,11.27606 1.10982,3.73717 2.6375,7.17781 3.39484,7.64588 0.75734,0.46806 3.61349,-0.69888 6.347,-2.59321 2.73351,-1.89432 7.79828,-4.40791 11.25504,-5.58574 3.45676,-1.17784 6.28502,-2.97293 6.28502,-3.98909 0,-1.96942 -9.18009,-7.2351 -12.61355,-7.2351 -1.12921,0 -2.0666,-0.45 -2.08308,-1 -0.0165,-0.55 -2.86647,-3.0611 -6.33333,-5.58022 -3.46685,-2.51912 -9.00337,-7.75098 -12.30337,-11.62635 -3.3,-3.87537 -6.75,-7.92142 -7.66667,-8.99121 C 200.75,191.73242 200,190.30646 200,189.63342 c 0,-0.67305 -0.93255,-3.09305 -2.07233,-5.37779 -5.00508,-10.03294 -7.35723,-36.1277 -4.03955,-44.81493 2.4696,-6.46655 5.26537,-9.30208 14.77854,-14.98869 8.36536,-5.0005 19.52198,-7.80582 44.41469,-11.16803 24.74235,-3.3419 27.09852,-4.14287 31.69408,-10.77427 5.23632,-7.556015 5.32344,-14.402553 0.30966,-24.33481 l -3.95615,-7.837077 3.95846,-4.168912 c 5.21617,-5.493486 9.3965,-14.028874 9.79917,-20.007914 0.33643,-4.995589 -2.03072,-9.043964 -3.95327,-6.760998 -0.58669,0.696666 -3.21815,3.984008 -5.84771,7.305204 -6.10069,7.70534 -14.15425,12.008524 -32.1529,17.179977 -16.15323,4.641217 -29.76671,10.010695 -33.26603,13.120907 -1.72791,1.535773 -2.33333,4.130204 -2.33333,9.999055 0,8.298615 -3.22731,17.470978 -5.84337,16.607468 -0.85176,-0.28115 -1.66208,-4.443465 -1.89178,-9.7174 -0.34175,-7.8465 -0.92716,-9.773929 -3.91612,-12.893736 -4.39226,-4.584531 -7.72914,-4.934408 -6.37228,-0.668143 0.52478,1.65 1.26552,6.763556 1.64609,11.363458 0.61915,7.483569 0.3132,8.935791 -2.90813,13.803541 -7.64871,11.55798 -17.0586,17.10832 -29.06932,17.14626 -5.92832,0.0187 -6.50258,0.32976 -8.55491,4.63355 -2.02131,4.23873 -9.02322,8.56459 -10.87136,6.71645 -0.37515,-0.37515 0.53932,-3.22785 2.03217,-6.33934 1.49284,-3.11149 4.06652,-10.75725 5.71929,-16.99059 C 162.36095,91.5931 165.66899,83.799576 171,78.398781 c 2.75,-2.785997 6.16459,-5.06545 7.58797,-5.06545 1.42339,0 2.9588,-0.6 3.41203,-1.333333 0.45322,-0.733333 3.33863,-1.342521 6.41202,-1.35375 7.94717,-0.02904 9.46269,-1.342374 8.35605,-7.241279 -1.06309,-5.666775 -4.92107,-10.071637 -8.82119,-10.071637 -6.61057,0 -26.2163,14.837262 -34.35601,25.999999 -4.49449,6.163701 -56.034134,57.078659 -66.924205,66.113039 -15.953954,13.23537 -26.144242,16.2328 -35.509287,10.44488 -5.451558,-3.36925 -5.624843,-2.03959 -0.972447,7.46185 4.545422,9.28296 9.68379,12.00956 20.284487,10.76365 4.066672,-0.47796 7.447538,-0.99975 7.513036,-1.15955 0.0655,-0.1598 2.79624,-3.85608 6.068316,-8.21396 6.936071,-9.23774 15.269593,-17.77791 34.84849,-35.71263 11.25661,-10.31132 14.4607,-12.6051 15.63353,-11.19193 2.12959,2.566 -2.43198,8.72619 -18.57801,25.08879 -7.45655,7.55655 -16.33712,17.63919 -19.734605,22.40586 -3.397485,4.76666 -7.236905,9.8298 -8.532044,11.25141 -1.29514,1.42162 -2.354799,3.28265 -2.354799,4.13565 0,0.85299 -2.98744,6.03677 -6.638755,11.5195 -8.015922,12.03653 -27.875999,31.49714 -35.694578,34.97662 -6.543287,2.91193 -7.047976,4.32431 -2.203392,6.16622 4.970685,1.88985 11.715771,-0.29109 21.6964,-7.01526 13.005956,-8.7624 14.629077,-9.68984 15.476031,-8.84288 0.432797,0.4328 -0.391586,5.21681 -1.831961,10.63115 -1.440375,5.41434 -3.009347,13.74425 -3.486604,18.51092 -0.477258,4.76667 -2.153736,13.46667 -3.725507,19.33333 -2.341093,8.73818 -3.828087,11.63578 -8.2247,16.02689 -5.649692,5.64262 -12.99996,8.63978 -21.188293,8.63978 -5.453971,0 -6.353638,2.22168 -2.362363,5.83373 7.22675,6.54012 17.012856,4.23644 27.398617,-6.44972 3.261377,-3.35571 6.22729,-5.61991 6.590919,-5.03154 0.363628,0.58836 -0.191334,5.54372 -1.23325,11.0119 -1.346479,7.06659 -1.622906,13.80243 -0.955737,23.28889 0.516262,7.34071 0.953477,19.94674 0.971589,28.0134 0.03781,16.83967 -1.638143,22.45499 -10.031111,33.60946 -2.873184,3.81853 -5.223971,7.26853 -5.223971,7.66667 0,0.39813 2.457377,0.72387 5.460839,0.72387 7.47127,0 11.839751,-3.50103 16.478461,-13.20633 2.136392,-4.46985 4.250892,-8.127 4.698889,-8.127 0.447997,0 1.845003,4.95 3.104457,11 3.345092,16.06872 14.47453,43.75222 22.100418,54.97286 9.94784,14.63713 32.61503,38.19276 37.4644,38.93283 1.52468,0.23268 5.81389,1.96443 9.53158,3.84832 3.71769,1.8839 6.99729,3.18742 7.288,2.89672 0.64388,-0.64388 -23.38274,-23.77975 -26.63832,-25.65073 -1.27603,-0.73334 -3.933,-4.33334 -5.90439,-8 -1.97138,-3.66667 -4.18434,-7.09478 -4.91767,-7.61804 -1.91673,-1.36764 -1.65887,-17.57987 0.3175,-19.96124 0.90796,-1.09402 4.05796,-2.71033 7,-3.59178 2.94204,-0.88146 5.34917,-1.90735 5.34917,-2.27975 0,-1.74074 -7.64656,-7.13625 -10.16667,-7.17372 -14.02032,-0.2085 -14.81147,-4.81755 -1.73081,-10.08341 8.97031,-3.61116 9.87045,-3.72413 18.24459,-2.2897 9.84934,1.68712 14.39035,4.42581 18.31955,11.04854 1.46667,2.47209 5.32201,7.09247 8.56743,10.26751 6.89858,6.74899 10.08103,13.2139 12.16195,24.70605 2.02857,11.20311 2.96574,12.1255 8.81401,8.67493 4.19882,-2.47736 4.61845,-3.2237 3.88246,-6.90515 -0.45386,-2.27017 -2.91034,-7.26835 -5.45885,-11.10706 C 186.08514,425.84845 184,422.31511 184,421.83531 c 0,-0.4798 3.60023,-0.5459 8.00052,-0.1469 10.29223,0.93327 18.67071,5.78919 24.86479,14.4109 2.73122,3.80167 5.75718,6.56734 7.18541,6.56734 1.35698,0 4.1507,1.44708 6.20826,3.21572 3.53523,3.03883 3.75289,3.86393 3.95685,15 0.46174,25.21126 3.76571,44.66931 9.47034,55.77375 5.40435,10.51991 25.80378,27.18047 36.95757,30.18387 8.76542,2.36029 18.40002,-0.47314 23.59649,-6.93945 4.49057,-5.58791 6.97847,-6.52641 8.28378,-3.12484 2.19146,5.71087 -2.37539,12.65361 -11.39833,17.32825 -9.50232,4.923 -26.84398,1.35671 -41.12569,-8.45744 -18.50037,-12.71316 -23.50745,-19.48975 -30.27913,-40.97986 -2.85362,-9.05603 -3.44167,-13.8742 -3.89445,-31.909 -0.29333,-11.68329 -0.79716,-21.50619 -1.11964,-21.82866 -0.32247,-0.32248 -3.37777,1.04958 -6.78955,3.04902 -5.6284,3.29846 -6.98402,3.55172 -14.62881,2.73304 -7.66913,-0.8213 -8.5592,-0.65263 -9.91391,1.87867 -0.86814,1.62214 -1.11541,4.85669 -0.59341,7.76229 0.9754,5.42922 8.92685,20.71434 12.9955,24.98131 3.4546,3.62298 10.22106,17.96475 10.22235,21.66666 0.002,4.77291 -3.62283,3.54282 -7.4569,-2.53074 -1.92028,-3.04192 -7.1778,-10.44221 -11.68339,-16.44511 -7.43268,-9.90271 -11.58219,-16.39464 -12.79903,-20.02414 -0.24586,-0.73334 -1.76635,-3.43334 -3.37885,-6 -3.75959,-5.98422 -7.98488,-18.30144 -10.0625,-29.33334 -2.26786,-12.0421 -2.93483,-12.54689 -13.12779,-9.93557 -7.77965,1.99305 -8.77896,1.97979 -14.8319,-0.19682 -5.48771,-1.97335 -6.8254,-2.05568 -8.66012,-0.533 -4.55985,3.78434 -0.79946,9.74896 19.33299,30.66539 5.9997,6.23334 14.23542,16.43334 18.3016,22.66667 14.60965,22.39613 42.78907,56.10045 54.06635,64.66666 4.49551,3.41479 4.51804,4.66667 0.084,4.66667 -7.39368,0 -21.75462,-12.25557 -39.84084,-34 -6.65313,-7.99883 -20.13513,-19.51799 -36.28233,-31 -7.45133,-5.29852 -13.10199,-3.62995 -17.00292,5.02077 -2.36571,5.24619 -2.37557,5.72319 -0.20153,9.74768 1.25724,2.32735 3.61902,4.89129 5.24839,5.69763 6.65004,3.29097 21.84596,11.76637 24.9625,13.92262 1.83334,1.26844 5.43334,3.26283 8,4.43197 4.59132,2.0914 9.35737,4.85801 10.66667,6.19181 0.36667,0.37353 3.1757,2.30493 6.24229,4.292 5.38671,3.49045 13.97652,10.64175 25.09104,20.88913 2.93334,2.70448 11.03283,11.09082 17.99888,18.63631 14.11101,15.28477 13.51095,15.06233 29.33445,10.87447 9.29616,-2.46032 20.67213,-1.10147 30.93349,3.69499 8.16071,3.81456 25.65667,16.10056 33.29522,23.38056 5.35973,5.10816 12.11149,9.66842 21.90761,14.79681 15.79235,8.26749 25.26649,7.70665 21.84477,-1.29315 -0.77525,-2.03909 -1.96006,-7.06207 -2.6329,-11.16218 -0.67283,-4.10012 -2.73189,-14.35475 -4.57568,-22.78809 -3.72343,-17.0306 -4.25694,-27.47767 -1.58311,-31 3.5778,-4.71317 5.00829,-3.09973 6.79731,7.66667 0.48743,2.93333 1.68489,8.03333 2.66103,11.33333 0.97614,3.3 2.76878,9.6 3.98365,14 3.19135,11.5584 10.15476,29.77264 11.95271,31.26481 0.84782,0.70363 9.61324,2.54604 19.4787,4.09424 53.19852,8.34851 51.52598,8.18353 73.78644,7.27856 24.77065,-1.00702 27.48409,-1.8281 27.48409,-8.31668 0,-9.06774 12.07154,-15.94998 24.9864,-14.24529 6.56176,0.86612 21.65851,-1.25659 26.19186,-3.68277 2.44569,-1.30889 2.45646,-1.45153 0.20479,-2.71163 -1.30718,-0.73154 -7.28377,-1.63621 -13.28131,-2.01038 -8.64991,-0.53965 -11.81483,-0.20963 -15.30676,1.59612 -5.59003,2.89072 -10.47036,1.15842 -15.56904,-5.5263 -3.20635,-4.20374 -3.98796,-4.56116 -8.23283,-3.76482 -2.57958,0.48393 -6.4391,2.17293 -8.57671,3.75333 -3.33705,2.46719 -4.07358,2.59521 -5.2093,0.90547 -1.89711,-2.82255 -0.72364,-11.66213 2.5223,-19.00012 2.03497,-4.6004 4.41714,-7.30734 8.77753,-9.97425 4.32859,-2.64746 6.57816,-5.19014 8.12976,-9.18906 3.13698,-8.08484 7.34261,-9.47305 20.16386,-6.6558 11.18199,2.45706 17.98128,5.5764 27.83533,12.77012 9.01158,6.5787 16.70423,11.18546 17.44357,10.44612 0.33321,-0.33322 -1.14236,-3.01917 -3.27905,-5.96879 -2.65921,-3.67093 -6.4358,-6.54061 -11.97023,-9.09566 -7.10604,-3.28063 -8.3045,-4.39291 -9.89474,-9.18331 -2.79221,-8.41112 -9.48811,-11.77883 -21.8093,-10.96901 -8.41746,0.55324 -9.61545,0.34059 -10.17691,-1.80641 -0.35,-1.33841 0.7961,-4.8356 2.54688,-7.77154 3.46157,-5.8048 14.24054,-12.23695 20.50665,-12.23695 1.91355,0 5.51828,-1.5044 8.01053,-3.34313 3.90591,-2.88169 5.45997,-3.23461 11.25904,-2.55693 3.70023,0.43241 9.12768,1.68163 12.06101,2.77604 6.54913,2.44345 16.14281,12.22006 21.94803,22.36651 7.18968,12.56625 12.29947,16.28884 28.43277,20.71387 8.55247,2.34576 32.28178,1.19108 43.44383,-2.114 9.98572,-2.95677 16.13499,-9.2749 16.42058,-16.8715 0.33707,-8.96618 -3.57093,-9.8566 -15.72398,-3.58264 -15.91209,8.21454 -41.76181,8.47528 -43.77814,0.44157 -0.44419,-1.76981 -0.1714,-4.40665 0.60622,-5.85963 1.40343,-2.62234 1.45475,-2.62093 6.96674,0.19108 8.17386,4.16999 15.21754,3.51332 29.90916,-2.78841 16.4319,-7.04819 22.55459,-6.50268 30.29764,2.69942 8.62712,10.25274 0.70251,28.92904 -14.52285,34.22669 -13.00901,4.52647 -16.67404,5.02717 -35.33333,4.82707 -16.72271,-0.17933 -20.68366,-0.65758 -29.33333,-3.54174 -11.61824,-3.874 -20.42855,-10.81984 -25.03151,-19.73426 -9.80379,-18.98669 -15.23526,-25.18334 -22.07363,-25.18334 -3.38916,0 -3.76214,0.37448 -2.98805,3 1.99948,6.7818 2.45004,18.29678 0.79399,20.2922 -2.63547,3.17555 -0.57644,7.81144 4.74077,10.67385 6.50644,3.50261 13.43569,10.57955 16.78288,17.14057 1.49821,2.93675 4.45784,7.18915 6.57695,9.44979 2.11911,2.26064 3.8557,4.48175 3.85909,4.9358 0.0124,1.66022 -9.60725,2.3224 -16.77975,1.15505 -5.15397,-0.83883 -9.44667,-2.71133 -14.29049,-6.2336 -3.80797,-2.76903 -7.12359,-5.49489 -7.36803,-6.05746 -0.24444,-0.56258 -1.0581,-1.02287 -1.80813,-1.02287 -0.75002,0 -3.55002,-1.72015 -6.22222,-3.82257 -8.24814,-6.48941 -15.82491,-9.69565 -21.85845,-9.24976 -4.83279,0.35715 -5.6174,0.88403 -6.5608,4.40567 -0.6857,2.55967 -0.35757,6.79939 0.91125,11.77435 1.09054,4.2759 1.9828,9.59402 1.9828,11.81806 v 4.0437 L 529,597.82549 c 10.10819,-1.82577 20.38374,-1.29836 29,1.48848 8.73939,2.82666 19.33333,8.2923 19.33333,9.97447 0,1.73535 -18.70694,10.42595 -27.33333,12.69812 -4.60916,1.21405 -12.03916,1.96989 -17.52957,1.78326 -14.76459,-0.50187 -16.97755,3.05757 -9.80376,15.76882 2.2,3.89819 4,7.71597 4,8.48397 0,3.55802 4.06496,10.64404 6.10605,10.64404 1.23317,0 5.26883,-2.17447 8.96813,-4.83215 z m 154.31115,-80.16785 c 0.0286,-0.55 2.71203,-2.95653 5.96318,-5.34783 4.51664,-3.32212 11.97504,-6.10311 31.61466,-11.78808 14.13692,-4.09214 27.62251,-8.6154 29.96798,-10.0517 7.14733,-4.37683 7.10615,-8.93171 -0.14206,-15.71147 -3.73789,-3.49631 -4.6235,-8.10092 -1.55807,-8.10092 3.00943,0 9.57695,6.19988 12.01906,11.34624 3.14045,6.61799 0.7033,13.27646 -6.13671,16.76597 -5.67226,2.89377 -25.64261,9.03553 -34.44671,10.59388 -7.5682,1.33959 -16.94389,4.51959 -27.85109,9.44641 -9.39407,4.24333 -9.50456,4.2767 -9.43024,2.8475 z M 822.2222,444.44443 c -1.92871,-1.92871 -0.70948,-5.69217 2.80529,-8.65925 4.1768,-3.52594 19.99497,-23.55285 22.84499,-28.92337 1.02988,-1.94067 2.28142,-3.82849 2.7812,-4.19516 0.49979,-0.36666 2.4754,-5.16666 4.39025,-10.66666 10.5487,-30.29895 10.19316,-54.90138 -1.03247,-71.44328 -3.80673,-5.60952 -4.28844,-9.61164 -1.29515,-10.76027 5.76428,-2.21197 15.223,18.05924 16.27074,34.87022 1.41444,22.6946 -8.94784,56.47415 -23.51841,76.66666 -4.93479,6.83884 -20.21272,24 -21.3663,24 -0.54518,0 -1.39125,-0.4 -1.88014,-0.88889 z m 5.04315,-25.44444 c 0.48829,-2.01667 3.08266,-6.96667 5.76527,-11 13.3591,-20.08554 18.49459,-33.7749 19.89979,-53.0457 0.8232,-11.28918 1.70575,-13.5375 4.15538,-10.58588 5.84603,7.04403 -0.49894,37.1922 -11.82779,56.19979 -5.74792,9.64389 -15.9302,22.09845 -18.06669,22.09845 -0.44756,0 -0.41424,-1.65 0.074,-3.66666 z M 598.76063,225.81662 c -4.2887,-5.45219 -6.76204,-15.86145 -6.74621,-28.39196 0.0253,-19.98679 6.06497,-32.32282 20.34366,-41.55158 8.22987,-5.31923 17.85146,-7.47533 14.30857,-3.20642 -0.91292,1.1 -2.212,2 -2.88686,2 -1.559,0 -14.37338,9.48129 -17.39554,12.87087 -7.9529,8.91977 -11.10679,29.24548 -7.08467,45.65813 1.27975,5.22211 2.86087,9.82482 3.51361,10.22823 1.57256,0.9719 1.53098,5.90944 -0.0498,5.90944 -0.68011,0 -2.48137,-1.58252 -4.0028,-3.51671 z M 186.49652,194.28538 c -10.86794,-9.1574 -14.88955,-46.49847 -6.3061,-58.55281 4.14527,-5.8215 7.23533,-4.46798 6.76503,2.96325 -0.20783,3.28396 -0.43529,12.87084 -0.50546,21.30418 -0.12775,15.3523 0.63469,18.90765 7.5057,34.99999 1.45288,3.40274 -3.08914,2.9676 -7.45917,-0.71461 z m 327.8368,456.87422 c 3.77746,-1.01232 3.7643,-2.12237 -0.0781,-6.58945 -2.2525,-2.61868 -3.82198,-3.34245 -5.85135,-2.69835 -3.3529,1.06417 -9.73719,6.78886 -9.73719,8.73118 0,1.50437 10.71023,1.88489 15.66666,0.55662 z m -2.70639,-63.56264 c 2.48121,-2.4596 0.58617,-7.60479 -2.78245,-7.55457 -3.84574,0.0573 -7.11383,2.73895 -8.82592,7.24208 l -1.4196,3.73383 5.70052,-0.90429 c 3.13528,-0.49735 6.43263,-1.63002 7.32745,-2.51705 z m 42.51965,-49.19736 c -0.46938,-2.34688 -1.59438,-4.73769 -2.5,-5.31292 -2.53473,-1.60998 -9.54937,-1.27915 -14.18238,0.66888 -4.43652,1.86541 -4.20866,3.57776 0.47609,3.57776 1.55605,0 5.18292,1.2 8.0597,2.66666 7.58554,3.86733 9.17758,3.55458 8.14659,-1.60038 z M 126.41366,479.00428 c -0.24669,-1.28097 -2.54068,-3.35215 -5.09776,-4.60263 -4.73016,-2.31316 -13.33191,-3.21993 -13.29634,-1.40166 0.0265,1.35541 13.3734,8.01895 16.41154,8.19359 1.63143,0.0938 2.28356,-0.62636 1.98256,-2.1893 z m 83.9968,-30.81773 c 2.51129,-1.5927 -1.44095,-9.08429 -7.48423,-14.18656 -3.93712,-3.32408 -4.59447,-3.54939 -3.89004,-1.33334 0.46622,1.46667 1.61342,5.36667 2.54933,8.66667 2.17887,7.68262 4.57869,9.54626 8.82494,6.85323 z m -53.56117,-28.59141 c 1.49169,-1.49169 -1.5748,-8.23177 -5.55682,-12.21379 -3.7631,-3.7631 -10.93321,-6.82485 -12.45838,-5.31994 -0.27459,0.27094 1.07541,2.36399 3,4.65123 1.92458,2.28724 3.49924,5.17908 3.49924,6.42631 0,4.17368 3.66493,7.86445 7.40202,7.45422 1.92507,-0.21132 3.77634,-0.66043 4.11394,-0.99803 z m 87.06118,-223.92848 c 3.11261,-3.11667 7.41962,-9.12637 9.57115,-13.3549 l 3.91187,-7.68823 -3.45022,-1.31177 c -4.05733,-1.54259 -16.17578,-1.75961 -17.07431,-0.30576 -0.34195,0.5533 -0.98023,7.1533 -1.41839,14.66666 -0.93412,16.01796 -0.22387,16.6891 8.4599,7.994 z m -23.75974,-9.38128 c 4.64178,-3.93298 8.68207,-10.28539 6.54177,-10.28539 -3.84357,0 -13.35917,8.25414 -13.35917,11.58818 0,2.58683 2.87528,2.03737 6.8174,-1.30279 z m -4.21412,-14.39275 c 7.79137,-5.64404 15.17701,-8.0486 25.39672,-8.26848 9.21025,-0.19816 30.00339,3.33608 36.66666,6.23229 2.2,0.95624 8.98795,2.83654 15.08432,4.17844 9.04603,1.99118 11.88308,2.151 15.428,0.86914 2.38902,-0.86388 5.25222,-1.57069 6.36267,-1.57069 1.11044,0 4.81643,-2.75792 8.23552,-6.12872 4.87885,-4.80993 6.64757,-7.79215 8.21968,-13.85912 1.10173,-4.25173 2.00315,-9.9758 2.00315,-12.72017 0,-7.29719 2.7283,-28.95693 3.94711,-31.33575 1.94933,-3.80463 2.97687,-10.622906 1.60091,-10.622906 -0.73179,0 -2.6848,2.249996 -4.34002,4.999996 -9.33552,15.51012 -11.79882,18.38658 -18.78433,21.93504 -3.89969,1.98093 -8.14034,3.9121 -9.42367,4.29148 -3.68943,1.09068 -2.71709,4.47732 1.55488,5.4156 2.13852,0.46969 5.927,0.47151 8.41884,0.004 9.03303,-1.69461 10.304,8.04235 2.54955,19.53227 -3.40524,5.0456 -5.59523,6.68865 -12.21479,9.1642 -6.72834,2.51623 -9.52366,2.86698 -16.85919,2.11543 -4.83644,-0.49551 -10.46236,-1.76391 -12.50204,-2.81867 -2.03967,-1.05475 -5.71222,-2.1675 -8.16121,-2.47277 -2.44899,-0.30527 -7.63616,-1.59765 -11.52705,-2.87195 -5.46514,-1.78988 -9.93214,-2.16743 -19.63769,-1.65977 -6.90984,0.36143 -13.32638,1.25438 -14.25899,1.98433 -0.9326,0.72996 -3.63311,1.97867 -6.00112,2.77491 -5.66475,1.90478 -13.69444,8.38406 -13.69449,11.05031 -9e-5,5.23683 4.51995,5.1541 11.93658,-0.21848 z m -9.26995,-18.47473 c 0,-2.7203 -3.10517,-5.86829 -4.45601,-4.51745 -1.38805,1.38805 -1.02275,5.08745 0.66945,6.77965 1.96452,1.96452 3.78656,0.87597 3.78656,-2.2622 z m 16.78626,-3.55651 c 2.90712,1.11557 3.42947,-3.46221 0.68663,-6.01755 -1.42884,-1.33117 -2.99568,-3.67363 -3.48187,-5.20547 -1.32647,-4.17936 -3.52326,-2.54775 -5.51632,4.09712 -2.34682,7.82432 -1.64341,9.64285 3.041,7.86184 1.98596,-0.75506 4.35771,-1.08624 5.27056,-0.73594 z m 25.24998,-3.25336 c 0.47316,-0.76558 -0.22353,-3.01558 -1.54818,-5 -1.32466,-1.98442 -3.54745,-5.87496 -4.93955,-8.64565 -3.17474,-6.31871 -6.9533,-8.65935 -8.57639,-5.31267 -0.62692,1.29266 -1.30675,6.40029 -1.51074,11.35029 l -0.37088,9 h 8.04273 c 4.4235,0 8.42985,-0.62639 8.90301,-1.39197 z M 193.50765,98.448819 c 1.88069,-7.08583 -0.0665,-16.646166 -3.67224,-18.029811 -2.60374,-0.999149 -7.19417,1.541499 -10.23029,5.662126 -2.34395,3.181217 -2.32269,3.322509 1,6.645201 1.86718,1.867181 3.39488,3.986873 3.39488,4.710426 0,0.723554 0.91629,3.508559 2.03621,6.188899 1.76533,4.22502 2.28797,4.61842 3.92867,2.95717 1.04085,-1.05389 2.6351,-4.7142 3.54277,-8.134011 z m 24.22527,-28.643467 c 0.58643,-0.992945 1.84463,-1.805354 2.79598,-1.805354 3.72896,0 8.00443,-5.370407 8.00443,-10.054339 0,-8.157096 -2.36981,-8.272994 -8.39603,-0.410615 -3.00636,3.922391 -6.26959,8.031621 -7.25162,9.131621 -2.2609,2.532497 -3.59531,6.179267 -2.61851,7.156067 1.00369,1.003686 6.12922,-1.754405 7.46575,-4.01738 z"
       id="path1" />
  </g>
</svg>
